<svg xmlns="http://www.w3.org/2000/svg" width="33" height="32" viewBox="0 0 33 32" fill="none">
<g clip-path="url(#clip0_3685_11401)">
<path d="M32.4506 26.625L26.1395 3.05889C25.9556 2.37222 25.2561 1.82333 24.3972 2.05333L23.5389 2.28333C23.1956 2.37556 22.8983 2.63889 22.6467 3.07445C21.8672 3.46 19.7411 4.03056 18.8689 4.08667C18.4333 3.835 18.0439 3.75556 17.7006 3.84778L16.8417 4.07778C16.7072 4.11389 16.6083 4.18611 16.5 4.24889V3.77778C16.5 2.79611 15.7039 2 14.7222 2L11.1667 2C10.185 2 9.38889 2.79611 9.38889 3.77778V7.33334L16.5 7.33334L22.1478 29.3856C22.3317 30.0722 23.0311 30.6211 23.89 30.3911L24.7483 30.1611C25.0917 30.0689 25.3889 29.8056 25.6406 29.37C26.4133 28.9878 28.5395 28.4145 29.4184 28.3578C29.8539 28.6095 30.2434 28.6889 30.5867 28.5967L31.4456 28.3667C32.3039 28.1367 32.635 27.3117 32.4506 26.625ZM24.9839 26.2328L19.8689 7.13167L23.3033 6.21167L28.4184 25.3128L24.9839 26.2328ZM0.5 23.3333H7.61112L7.61112 9.11112H0.5L0.5 23.3333ZM5.83334 2L2.27778 2C1.29611 2 0.5 2.79611 0.5 3.77778L0.5 7.33334L7.61112 7.33334L7.61112 3.77778C7.61112 2.79611 6.815 2 5.83334 2ZM0.5 28.6667C0.5 29.6484 1.29611 30.4445 2.27778 30.4445H5.83334C6.815 30.4445 7.61112 29.6484 7.61112 28.6667L7.61112 25.1111H0.5L0.5 28.6667ZM9.38889 23.3333L16.5 23.3333L16.5 9.11112L9.38889 9.11112L9.38889 23.3333ZM9.38889 28.6667C9.38889 29.6484 10.185 30.4445 11.1667 30.4445L14.7222 30.4445C15.7039 30.4445 16.5 29.6484 16.5 28.6667V25.1111L9.38889 25.1111V28.6667Z" fill="#FF5A1F"/>
</g>
<defs>
<clipPath id="clip0_3685_11401">
<rect width="32" height="32" fill="white" transform="translate(0.5)"/>
</clipPath>
</defs>
</svg>
