<svg xmlns="http://www.w3.org/2000/svg" width="24" height="24" viewBox="0 0 24 24" fill="none">
<path d="M21.7299 17.5622C22.2589 16.487 22.5225 15.3007 22.4987 14.1027C22.4749 12.9046 22.1644 11.7297 21.5932 10.6763C21.022 9.62298 20.2067 8.72181 19.2156 8.04831C18.2245 7.37481 17.0865 6.94859 15.8968 6.80533C15.5023 5.88557 14.9276 5.05409 14.2067 4.35986C13.4859 3.66563 12.6333 3.1227 11.6994 2.76306C10.7654 2.40342 9.76889 2.23434 8.76857 2.26579C7.76825 2.29724 6.78434 2.52858 5.87482 2.94617C4.96529 3.36377 4.14854 3.95918 3.47269 4.69732C2.79683 5.43546 2.27555 6.30141 1.93955 7.24413C1.60355 8.18686 1.45963 9.1873 1.51626 10.1865C1.5729 11.1857 1.82895 12.1635 2.26932 13.0622L1.5512 15.5766C1.48712 15.8015 1.48431 16.0395 1.54307 16.2659C1.60182 16.4923 1.72001 16.6989 1.8854 16.8643C2.05079 17.0296 2.25736 17.1478 2.48376 17.2066C2.71015 17.2653 2.94813 17.2625 3.17307 17.1985L5.68745 16.4803C6.44618 16.8528 7.26232 17.0947 8.10151 17.1956C8.50154 18.1329 9.08836 18.9787 9.82615 19.6816C10.5639 20.3845 11.4372 20.9297 12.3927 21.2838C13.3482 21.638 14.3658 21.7938 15.3835 21.7416C16.4012 21.6894 17.3976 21.4304 18.3118 20.9803L20.8262 21.6985C21.0511 21.7625 21.2891 21.7653 21.5155 21.7066C21.7419 21.6478 21.9485 21.5296 22.1139 21.3643C22.2793 21.1989 22.3974 20.9923 22.4562 20.7659C22.515 20.5395 22.5122 20.3015 22.4481 20.0766L21.7299 17.5622ZM20.2056 17.6878L20.9134 20.1638L18.4374 19.456C18.2488 19.4029 18.0469 19.4258 17.8749 19.5197C16.4924 20.2719 14.8699 20.4512 13.3564 20.0192C11.843 19.5872 10.5596 18.5784 9.78245 17.2097C10.8094 17.1028 11.8032 16.7847 12.7015 16.2755C13.5998 15.7664 14.3831 15.077 15.0024 14.2508C15.6216 13.4246 16.0635 12.4793 16.3002 11.4742C16.5368 10.4692 16.5633 9.42607 16.3778 8.41033C17.2765 8.62213 18.1142 9.03849 18.8256 9.62698C19.5371 10.2155 20.1032 10.9602 20.4798 11.8033C20.8563 12.6463 21.0332 13.5649 20.9967 14.4875C20.9603 15.4101 20.7113 16.3119 20.2693 17.1225C20.1747 17.2953 20.1518 17.4983 20.2056 17.6878Z" fill="#374151"/>
</svg>
