<svg xmlns="http://www.w3.org/2000/svg" width="33" height="32" viewBox="0 0 33 32" fill="none">
<path d="M22.5613 11.9388C22.7011 12.0781 22.812 12.2437 22.8878 12.426C22.9635 12.6083 23.0024 12.8038 23.0024 13.0013C23.0024 13.1987 22.9635 13.3942 22.8878 13.5765C22.812 13.7588 22.7011 13.9244 22.5613 14.0638L15.5613 21.0637C15.4219 21.2036 15.2563 21.3145 15.074 21.3903C14.8917 21.466 14.6962 21.5049 14.4988 21.5049C14.3013 21.5049 14.1059 21.466 13.9235 21.3903C13.7412 21.3145 13.5756 21.2036 13.4363 21.0637L10.4363 18.0637C10.2967 17.9242 10.186 17.7586 10.1105 17.5763C10.035 17.394 9.99615 17.1986 9.99615 17.0012C9.99615 16.8039 10.035 16.6085 10.1105 16.4262C10.186 16.2439 10.2967 16.0783 10.4363 15.9388C10.5758 15.7992 10.7414 15.6885 10.9237 15.613C11.106 15.5375 11.3014 15.4986 11.4988 15.4986C11.6961 15.4986 11.8915 15.5375 12.0738 15.613C12.2561 15.6885 12.4217 15.7992 12.5613 15.9388L14.5 17.875L20.4388 11.935C20.5783 11.7958 20.7439 11.6854 20.9262 11.6103C21.1084 11.5351 21.3037 11.4966 21.5008 11.4969C21.6979 11.4973 21.893 11.5365 22.075 11.6123C22.257 11.6881 22.4222 11.799 22.5613 11.9388ZM30 16C30 18.67 29.2082 21.2801 27.7248 23.5002C26.2414 25.7203 24.133 27.4506 21.6662 28.4724C19.1994 29.4942 16.485 29.7615 13.8663 29.2406C11.2475 28.7197 8.84207 27.434 6.95406 25.5459C5.06606 23.6579 3.78031 21.2525 3.2594 18.6337C2.7385 16.015 3.00585 13.3006 4.02763 10.8338C5.04942 8.36697 6.77974 6.25856 8.99981 4.77516C11.2199 3.29176 13.83 2.5 16.5 2.5C20.0792 2.50397 23.5107 3.92756 26.0416 6.45844C28.5724 8.98932 29.996 12.4208 30 16ZM27 16C27 13.9233 26.3842 11.8932 25.2304 10.1665C24.0767 8.4398 22.4368 7.09399 20.5182 6.29926C18.5996 5.50454 16.4884 5.29661 14.4516 5.70175C12.4148 6.1069 10.5438 7.10693 9.07538 8.57538C7.60693 10.0438 6.60691 11.9148 6.20176 13.9516C5.79662 15.9884 6.00455 18.0996 6.79927 20.0182C7.59399 21.9368 8.9398 23.5767 10.6665 24.7304C12.3932 25.8842 14.4233 26.5 16.5 26.5C19.2839 26.497 21.9529 25.3898 23.9213 23.4213C25.8898 21.4528 26.997 18.7839 27 16Z" fill="#099250"/>
</svg>
