<svg xmlns="http://www.w3.org/2000/svg" width="32" height="32" viewBox="0 0 32 32" fill="none">
<g clip-path="url(#clip0_3685_11412)">
<path d="M16 0.5C7.4375 0.5 0.5 7.4375 0.5 16C0.5 24.5625 7.4375 31.5 16 31.5C24.5625 31.5 31.5 24.5625 31.5 16C31.5 7.4375 24.5625 0.5 16 0.5ZM21.7806 20.0625L20.5306 21.625C20.4486 21.7276 20.3472 21.813 20.2321 21.8763C20.1171 21.9397 19.9907 21.9797 19.8602 21.9943C19.7297 22.0088 19.5975 21.9974 19.4714 21.9609C19.3453 21.9243 19.2276 21.8633 19.125 21.7812L14.9375 18.6737C14.6449 18.4395 14.4087 18.1424 14.2465 17.8046C14.0842 17.4667 14 17.0967 14 16.7219V7C14 6.73478 14.1054 6.48043 14.2929 6.29289C14.4804 6.10536 14.7348 6 15 6H17C17.2652 6 17.5196 6.10536 17.7071 6.29289C17.8946 6.48043 18 6.73478 18 7V16L21.625 18.6562C21.7276 18.7383 21.813 18.8398 21.8764 18.9549C21.9397 19.0701 21.9798 19.1965 21.9942 19.3271C22.0087 19.4577 21.9973 19.5899 21.9606 19.7161C21.924 19.8423 21.8628 19.96 21.7806 20.0625Z" fill="#FF5A1F"/>
</g>
<defs>
<clipPath id="clip0_3685_11412">
<rect width="32" height="32" fill="white"/>
</clipPath>
</defs>
</svg>
