<svg xmlns="http://www.w3.org/2000/svg" width="16" height="16" viewBox="0 0 16 16" fill="none">
<g clip-path="url(#clip0_3714_6642)">
<path d="M15.7864 0.603027C15.7496 0.432312 15.568 0.250977 15.3973 0.214477C14.3943 0 13.6083 0 12.8256 0C9.60004 0 7.66567 1.7251 6.22161 4L2.96527 4C2.45598 4 1.85281 4.37262 1.62499 4.82806L0.0805721 7.91553C0.0328238 8.02083 0.00611488 8.13445 0.0019471 8.25C0.00201338 8.44891 0.0810674 8.63965 0.221729 8.7803C0.362391 8.92094 0.553146 8.99996 0.752057 9H4.00058C4.39458 8.99997 4.78472 9.07754 5.14874 9.22829C5.51275 9.37904 5.84351 9.60001 6.12213 9.87858C6.40074 10.1572 6.62176 10.4879 6.77256 10.8519C6.92337 11.2159 7.001 11.606 7.00103 12L7.00103 15.25C7.00109 15.4489 7.08015 15.6397 7.22081 15.7803C7.36147 15.9209 7.55222 16 7.75114 16C7.86668 15.9957 7.9803 15.969 8.08566 15.9214L11.1715 14.3774C11.6265 14.1498 11.9988 13.5473 11.9988 13.0386V9.7749C14.2672 8.32764 15.9994 6.38721 15.9994 3.17822C16.0023 2.39227 16.0024 1.60632 15.7864 0.603027ZM12.0018 5.25C11.7545 5.24996 11.5129 5.17662 11.3073 5.03925C11.1018 4.90187 10.9416 4.70664 10.847 4.47823C10.7525 4.24982 10.7277 3.99849 10.776 3.75602C10.8242 3.51356 10.9433 3.29085 11.1181 3.11605C11.2929 2.94125 11.5157 2.82222 11.7582 2.774C12.0006 2.72579 12.2519 2.75055 12.4803 2.84517C12.7087 2.93978 12.904 3.1 13.0413 3.30556C13.1786 3.51111 13.2519 3.75278 13.2519 4C13.2518 4.3315 13.12 4.64938 12.8856 4.88377C12.6512 5.11816 12.3333 5.24988 12.0018 5.25ZM1.11515 11.0021C0.307107 11.81 -0.0921829 13.8311 0.0180018 15.9816C2.17787 16.0928 4.19336 15.6893 4.99817 14.8845C6.2572 13.6258 6.33809 11.9474 5.1954 10.8049C4.05271 9.66241 2.37406 9.74329 1.11515 11.0021ZM3.66618 13.628C3.39789 13.8963 2.7261 14.0308 2.00621 13.9937C1.96952 13.2769 2.1026 12.6033 2.37193 12.334C2.79154 11.9144 3.35101 11.8875 3.73187 12.2682C4.11272 12.6491 4.0858 13.2085 3.66618 13.628Z" fill="white"/>
</g>
<defs>
<clipPath id="clip0_3714_6642">
<rect width="16" height="16" fill="white"/>
</clipPath>
</defs>
</svg>
