
<svg width="16" height="16" viewBox="0 0 16 16" fill="none" xmlns="http://www.w3.org/2000/svg">
<path d="M0 1.75V9.24999C0 9.66421 0.335781 9.99999 0.749999 9.99999H3.25C3.66421 9.99999 3.99999 9.66421 3.99999 9.24999V1.75C3.99999 1.33578 3.66421 0.999999 3.25 0.999999H0.749999C0.335781 0.999999 0 1.33578 0 1.75ZM1.25 7.99999C1.25 7.58577 1.58578 7.24999 2 7.24999C2.41422 7.24999 2.75 7.58577 2.75 7.99999C2.75 8.41421 2.41422 8.74999 2 8.74999C1.58578 8.74999 1.25 8.41421 1.25 7.99999ZM9.74999 16C9.11927 16 8.82858 14.7721 8.68964 14.1939C8.52696 13.5168 8.35874 12.8167 7.89611 12.3532C6.88146 11.3368 6.34915 10.0417 5.11121 8.81849C5.07598 8.78367 5.04802 8.7422 5.02893 8.69649C5.00985 8.65078 5.00002 8.60174 5.00002 8.55221V1.8719C5.00002 1.6675 5.16387 1.50072 5.36824 1.49697C5.86296 1.4879 6.51493 1.21325 7.01358 0.991405C8.0059 0.549937 9.24089 0.000531249 10.7498 0H10.8387C12.1755 0 13.7563 0.0129062 14.3941 0.92928C14.6564 1.30606 14.7206 1.77409 14.5863 2.32403C15.096 2.85693 15.3695 3.851 15.0982 4.66018C15.6464 5.39243 15.6964 6.4143 15.3891 7.14358L15.3925 7.14702C15.7642 7.52043 16.0026 8.12387 16 8.68443C15.9951 9.63293 15.1826 10.5 14.139 10.5H10.9601C11.1884 11.3856 12 12.1291 12 13.4546C12 15.75 10.5 16 9.74999 16Z" fill="#111827"/>
</svg>
