
<svg width="16" height="16" viewBox="0 0 16 16" fill="none" xmlns="http://www.w3.org/2000/svg">
<g clip-path="url(#clip0_3906_28729)">
<path d="M15.5205 7.07239C15.6923 6.37439 15.6088 5.51365 15.2196 4.90349C15.3544 4.16074 15.1228 3.36046 14.6501 2.80646C14.7101 1.12194 13.6797 7.93369e-07 11.8271 0.000438293C11.722 -0.000499206 10.7175 0.000344543 10.5454 0.000438293C8.14352 -0.000217956 6.12239 1.25 4.99999 1.25H4.66108C4.48484 1.09453 4.25352 0.999999 3.99999 0.999999H0.999998C0.447718 0.999999 0 1.44772 0 2V9.99998C0 10.5523 0.447718 11 0.999998 11H3.99999C4.55227 11 4.99999 10.5523 4.99999 9.99998V9.60995C5.02655 9.61826 5.05165 9.62711 5.07443 9.6367C5.74999 9.99998 6.87455 11.789 7.61111 12.5256C7.92049 12.835 8.02105 13.3519 8.12752 13.8991C8.30573 14.815 8.65358 16 9.59092 16C11.4537 16 12.1818 14.9165 12.1818 13.0912C12.1818 12.1254 11.8076 11.4522 11.5351 10.9094H13.7273C14.9977 10.9094 16 9.81895 16 8.64161C16 7.99999 15.8307 7.47471 15.5205 7.07239ZM3.99999 9.99998H0.999998V2H3.99999V9.99998ZM13.7273 9.90942H10.2273C10.2273 11.1821 11.1818 11.7728 11.1818 13.0912C11.1818 13.8904 11.1818 15.0003 9.59092 15.0003C8.95458 14.3639 9.27273 12.773 8.3182 11.8185C7.42424 10.9245 6.09096 8.6367 5.1364 8.6367H4.99999V2.27312H5.1364C6.2208 2.27312 8.3182 1.00041 10.5454 1.00041C10.6542 1.00041 11.7147 0.999468 11.8182 1.00041C13.0135 1.01191 13.8652 1.57647 13.606 3.21834C14.1175 3.49271 14.4978 4.44443 14.0753 5.15571C14.75 5.49999 14.75 6.99999 14.2505 7.36399C14.75 7.49999 15.0031 8.00036 15 8.6367C14.9968 9.27308 14.4376 9.90942 13.7273 9.90942ZM3.24999 8.49998C3.24999 8.9142 2.91421 9.24998 2.5 9.24998C2.08578 9.24998 1.75 8.9142 1.75 8.49998C1.75 8.08577 2.08578 7.74999 2.5 7.74999C2.91421 7.74999 3.24999 8.08577 3.24999 8.49998Z" fill="#1F2937"/>
</g>
<defs>
<clipPath id="clip0_3906_28729">
<rect width="16" height="16" fill="white"/>
</clipPath>
</defs>
</svg>
